<svg width="300" height="120" viewBox="0 0 300 120" xmlns="http://www.w3.org/2000/svg">
  <defs>
    <style>
      .logo-text { 
        font-family: 'Arial', sans-serif; 
        font-weight: bold; 
        fill: #39FF14; 
      }
      .logo-sf { 
        font-family: 'Arial', sans-serif; 
        font-weight: bold; 
        fill: #39FF14; 
      }
      .logo-vps { 
        font-family: 'Arial', sans-serif; 
        font-weight: bold; 
        fill: #ffffff; 
      }
      .circuit-bg { 
        fill: #000000; 
        stroke: #39FF14; 
        stroke-width: 1; 
      }
      .circuit-line { 
        stroke: #39FF14; 
        stroke-width: 1; 
        fill: none; 
      }
      .circuit-dot { 
        fill: #39FF14; 
      }
    </style>
  </defs>
  
  <!-- Circuit pattern background for SF -->
  <rect x="95" y="20" width="50" height="30" class="circuit-bg" rx="3"/>
  
  <!-- Circuit lines extending from the chip -->
  <g class="circuit-line">
    <!-- Top connections -->
    <line x1="115" y1="20" x2="115" y2="10"/>
    <line x1="125" y1="20" x2="125" y2="10"/>
    <line x1="105" y1="20" x2="105" y2="10"/>
    <line x1="135" y1="20" x2="135" y2="10"/>
    
    <!-- Bottom connections -->
    <line x1="115" y1="50" x2="115" y2="60"/>
    <line x1="125" y1="50" x2="125" y2="60"/>
    <line x1="105" y1="50" x2="105" y2="60"/>
    <line x1="135" y1="50" x2="135" y2="60"/>
    
    <!-- Left connections -->
    <line x1="95" y1="30" x2="85" y2="30"/>
    <line x1="95" y1="35" x2="85" y2="35"/>
    <line x1="95" y1="40" x2="85" y2="40"/>
    
    <!-- Right connections -->
    <line x1="145" y1="30" x2="155" y2="30"/>
    <line x1="145" y1="35" x2="155" y2="35"/>
    <line x1="145" y1="40" x2="155" y2="40"/>
  </g>
  
  <!-- Circuit dots -->
  <g class="circuit-dot">
    <circle cx="115" cy="10" r="1.5"/>
    <circle cx="125" cy="10" r="1.5"/>
    <circle cx="105" cy="10" r="1.5"/>
    <circle cx="135" cy="10" r="1.5"/>
    
    <circle cx="115" cy="60" r="1.5"/>
    <circle cx="125" cy="60" r="1.5"/>
    <circle cx="105" cy="60" r="1.5"/>
    <circle cx="135" cy="60" r="1.5"/>
    
    <circle cx="85" cy="30" r="1.5"/>
    <circle cx="85" cy="35" r="1.5"/>
    <circle cx="85" cy="40" r="1.5"/>
    
    <circle cx="155" cy="30" r="1.5"/>
    <circle cx="155" cy="35" r="1.5"/>
    <circle cx="155" cy="40" r="1.5"/>
  </g>
  
  <!-- SF text in the chip -->
  <text x="120" y="42" text-anchor="middle" class="logo-sf" font-size="18">SF</text>
  
  <!-- SUPER text -->
  <text x="20" y="90" class="logo-text" font-size="28">SUPER</text>
  
  <!-- FVPS text -->
  <text x="140" y="90" class="logo-text" font-size="28">F</text>
  <text x="165" y="90" class="logo-vps" font-size="28">VPS</text>
  
  <!-- Tagline -->
  <text x="150" y="110" text-anchor="middle" class="logo-vps" font-size="10">Fast Functional Further</text>
</svg>
